{
  "asset": {
    "generator": "glTF-Transform v4.2.1",
    "version": "2.0"
  },
  "accessors": [
    {
      "type": "VEC3",
      "componentType": 5126,
      "count": 84816,
      "max": [
        90.25658416748047,
        180.88832092285156,
        17.174169540405273
      ],
      "min": [
        -90.25662231445312,
        -0.03219377622008324,
        -14.895703315734863
      ],
      "bufferView": 0,
      "byteOffset": 0
    },
    {
      "type": "VEC3",
      "componentType": 5126,
      "count": 84816,
      "bufferView": 0,
      "byteOffset": 12
    },
    {
      "type": "VEC2",
      "componentType": 5126,
      "count": 84816,
      "bufferView": 0,
      "byteOffset": 24
    },
    {
      "type": "VEC4",
      "componentType": 5123,
      "count": 84816,
      "bufferView": 0,
      "byteOffset": 32
    },
    {
      "type": "VEC4",
      "componentType": 5126,
      "count": 84816,
      "bufferView": 0,
      "byteOffset": 40
    },
    {
      "type": "SCALAR",
      "componentType": 5125,
      "count": 84816,
      "bufferView": 1,
      "byteOffset": 0
    },
    {
      "type": "SCALAR",
      "componentType": 5125,
      "count": 62520,
      "bufferView": 1,
      "byteOffset": 339264
    },
    {
      "type": "VEC3",
      "componentType": 5126,
      "count": 62520,
      "max": [
        88.34667205810547,
        159.64422607421875,
        12.501924514770508
      ],
      "min": [
        -88.34671020507812,
        -0.03511611744761467,
        -12.99051570892334
      ],
      "bufferView": 2,
      "byteOffset": 0
    },
    {
      "type": "VEC3",
      "componentType": 5126,
      "count": 62520,
      "bufferView": 2,
      "byteOffset": 12
    },
    {
      "type": "VEC2",
      "componentType": 5126,
      "count": 62520,
      "bufferView": 2,
      "byteOffset": 24
    },
    {
      "type": "VEC4",
      "componentType": 5123,
      "count": 62520,
      "bufferView": 2,
      "byteOffset": 32
    },
    {
      "type": "VEC4",
      "componentType": 5126,
      "count": 62520,
      "bufferView": 2,
      "byteOffset": 40
    },
    {
      "type": "MAT4",
      "componentType": 5126,
      "count": 65,
      "bufferView": 3,
      "byteOffset": 0
    },
    {
      "type": "MAT4",
      "componentType": 5126,
      "count": 65,
      "bufferView": 4,
      "byteOffset": 0
    },
    {
      "type": "SCALAR",
      "componentType": 5126,
      "count": 27,
      "max": [
        0.8666666746139526
      ],
      "min": [
        0
      ],
      "bufferView": 4,
      "byteOffset": 4160
    },
    {
      "type": "VEC3",
      "componentType": 5126,
      "count": 27,
      "bufferView": 4,
      "byteOffset": 4268
    },
    {
      "type": "VEC4",
      "componentType": 5126,
      "count": 27,
      "bufferView": 4,
      "byteOffset": 4592
    },
    {
      "type": "VEC3",
      "componentType": 5126,
      "count": 27,
      "bufferView": 4,
      "byteOffset": 5024
    },
    {
      "type": "VEC3",
      "componentType": 5126,
      "count": 27,
      "bufferView": 4,
      "byteOffset": 5348
    },
    {
      "type": "VEC4",
      "componentType": 5126,
      "count": 27,
      "bufferView": 4,
      "byteOffset": 5672
    },
    {
      "type": "VEC3",
      "componentType": 5126,
      "count": 27,
      "bufferView": 4,
      "byteOffset": 6104
    },
    {
      "type": "VEC4",
      "componentType": 5126,
      "count": 27,
      "bufferView": 4,
      "byteOffset": 6428
    },
    {
      "type": "VEC3",
      "componentType": 5126,
      "count": 27,
      "bufferView": 4,
      "byteOffset": 6860
    },
    {
      "type": "VEC4",
      "componentType": 5126,
      "count": 27,
      "bufferView": 4,
      "byteOffset": 7184
    },
    {
      "type": "VEC3",
      "componentType": 5126,
      "count": 27,
      "bufferView": 4,
      "byteOffset": 7616
    },
    {
      "type": "VEC4",
      "componentType": 5126,
      "count": 27,
      "bufferView": 4,
      "byteOffset": 7940
    },
    {
      "type": "VEC3",
      "componentType": 5126,
      "count": 27,
      "bufferView": 4,
      "byteOffset": 8372
    },
    {
      "type": "VEC4",
      "componentType": 5126,
      "count": 27,
      "bufferView": 4,
      "byteOffset": 8696
    },
    {
      "type": "VEC3",
      "componentType": 5126,
      "count": 27,
      "bufferView": 4,
      "byteOffset": 9128
    },
    {
      "type": "VEC4",
      "componentType": 5126,
      "count": 27,
      "bufferView": 4,
      "byteOffset": 9452
    },
    {
      "type": "VEC3",
      "componentType": 5126,
      "count": 27,
      "bufferView": 4,
      "byteOffset": 9884
    },
    {
      "type": "VEC4",
      "componentType": 5126,
      "count": 27,
      "bufferView": 4,
      "byteOffset": 10208
    },
    {
      "type": "VEC3",
      "componentType": 5126,
      "count": 27,
      "bufferView": 4,
      "byteOffset": 10640
    },
    {
      "type": "VEC4",
      "componentType": 5126,
      "count": 27,
      "bufferView": 4,
      "byteOffset": 10964
    },
    {
      "type": "VEC3",
      "componentType": 5126,
      "count": 27,
      "bufferView": 4,
      "byteOffset": 11396
    },
    {
      "type": "VEC4",
      "componentType": 5126,
      "count": 27,
      "bufferView": 4,
      "byteOffset": 11720
    },
    {
      "type": "VEC3",
      "componentType": 5126,
      "count": 27,
      "bufferView": 4,
      "byteOffset": 12152
    },
    {
      "type": "VEC4",
      "componentType": 5126,
      "count": 27,
      "bufferView": 4,
      "byteOffset": 12476
    },
    {
      "type": "VEC3",
      "componentType": 5126,
      "count": 27,
      "bufferView": 4,
      "byteOffset": 12908
    },
    {
      "type": "VEC4",
      "componentType": 5126,
      "count": 27,
      "bufferView": 4,
      "byteOffset": 13232
    },
    {
      "type": "VEC3",
      "componentType": 5126,
      "count": 27,
      "bufferView": 4,
      "byteOffset": 13664
    },
    {
      "type": "VEC4",
      "componentType": 5126,
      "count": 27,
      "bufferView": 4,
      "byteOffset": 13988
    },
    {
      "type": "VEC3",
      "componentType": 5126,
      "count": 27,
      "bufferView": 4,
      "byteOffset": 14420
    },
    {
      "type": "VEC4",
      "componentType": 5126,
      "count": 27,
      "bufferView": 4,
      "byteOffset": 14744
    },
    {
      "type": "VEC3",
      "componentType": 5126,
      "count": 27,
      "bufferView": 4,
      "byteOffset": 15176
    },
    {
      "type": "VEC4",
      "componentType": 5126,
      "count": 27,
      "bufferView": 4,
      "byteOffset": 15500
    },
    {
      "type": "VEC3",
      "componentType": 5126,
      "count": 27,
      "bufferView": 4,
      "byteOffset": 15932
    },
    {
      "type": "VEC4",
      "componentType": 5126,
      "count": 27,
      "bufferView": 4,
      "byteOffset": 16256
    },
    {
      "type": "VEC3",
      "componentType": 5126,
      "count": 27,
      "bufferView": 4,
      "byteOffset": 16688
    },
    {
      "type": "VEC4",
      "componentType": 5126,
      "count": 27,
      "bufferView": 4,
      "byteOffset": 17012
    },
    {
      "type": "VEC3",
      "componentType": 5126,
      "count": 27,
      "bufferView": 4,
      "byteOffset": 17444
    },
    {
      "type": "VEC4",
      "componentType": 5126,
      "count": 27,
      "bufferView": 4,
      "byteOffset": 17768
    },
    {
      "type": "VEC3",
      "componentType": 5126,
      "count": 27,
      "bufferView": 4,
      "byteOffset": 18200
    },
    {
      "type": "VEC4",
      "componentType": 5126,
      "count": 27,
      "bufferView": 4,
      "byteOffset": 18524
    },
    {
      "type": "VEC3",
      "componentType": 5126,
      "count": 27,
      "bufferView": 4,
      "byteOffset": 18956
    },
    {
      "type": "VEC4",
      "componentType": 5126,
      "count": 27,
      "bufferView": 4,
      "byteOffset": 19280
    },
    {
      "type": "VEC3",
      "componentType": 5126,
      "count": 27,
      "bufferView": 4,
      "byteOffset": 19712
    },
    {
      "type": "VEC4",
      "componentType": 5126,
      "count": 27,
      "bufferView": 4,
      "byteOffset": 20036
    },
    {
      "type": "VEC3",
      "componentType": 5126,
      "count": 27,
      "bufferView": 4,
      "byteOffset": 20468
    },
    {
      "type": "VEC4",
      "componentType": 5126,
      "count": 27,
      "bufferView": 4,
      "byteOffset": 20792
    },
    {
      "type": "VEC3",
      "componentType": 5126,
      "count": 27,
      "bufferView": 4,
      "byteOffset": 21224
    },
    {
      "type": "VEC4",
      "componentType": 5126,
      "count": 27,
      "bufferView": 4,
      "byteOffset": 21548
    },
    {
      "type": "VEC3",
      "componentType": 5126,
      "count": 27,
      "bufferView": 4,
      "byteOffset": 21980
    },
    {
      "type": "VEC4",
      "componentType": 5126,
      "count": 27,
      "bufferView": 4,
      "byteOffset": 22304
    },
    {
      "type": "VEC3",
      "componentType": 5126,
      "count": 27,
      "bufferView": 4,
      "byteOffset": 22736
    },
    {
      "type": "VEC4",
      "componentType": 5126,
      "count": 27,
      "bufferView": 4,
      "byteOffset": 23060
    },
    {
      "type": "VEC3",
      "componentType": 5126,
      "count": 27,
      "bufferView": 4,
      "byteOffset": 23492
    },
    {
      "type": "VEC4",
      "componentType": 5126,
      "count": 27,
      "bufferView": 4,
      "byteOffset": 23816
    },
    {
      "type": "VEC3",
      "componentType": 5126,
      "count": 27,
      "bufferView": 4,
      "byteOffset": 24248
    },
    {
      "type": "VEC4",
      "componentType": 5126,
      "count": 27,
      "bufferView": 4,
      "byteOffset": 24572
    },
    {
      "type": "VEC3",
      "componentType": 5126,
      "count": 27,
      "bufferView": 4,
      "byteOffset": 25004
    },
    {
      "type": "VEC4",
      "componentType": 5126,
      "count": 27,
      "bufferView": 4,
      "byteOffset": 25328
    },
    {
      "type": "VEC3",
      "componentType": 5126,
      "count": 27,
      "bufferView": 4,
      "byteOffset": 25760
    },
    {
      "type": "VEC4",
      "componentType": 5126,
      "count": 27,
      "bufferView": 4,
      "byteOffset": 26084
    },
    {
      "type": "VEC3",
      "componentType": 5126,
      "count": 27,
      "bufferView": 4,
      "byteOffset": 26516
    },
    {
      "type": "VEC4",
      "componentType": 5126,
      "count": 27,
      "bufferView": 4,
      "byteOffset": 26840
    },
    {
      "type": "VEC3",
      "componentType": 5126,
      "count": 27,
      "bufferView": 4,
      "byteOffset": 27272
    },
    {
      "type": "VEC4",
      "componentType": 5126,
      "count": 27,
      "bufferView": 4,
      "byteOffset": 27596
    },
    {
      "type": "VEC3",
      "componentType": 5126,
      "count": 27,
      "bufferView": 4,
      "byteOffset": 28028
    },
    {
      "type": "VEC4",
      "componentType": 5126,
      "count": 27,
      "bufferView": 4,
      "byteOffset": 28352
    },
    {
      "type": "VEC3",
      "componentType": 5126,
      "count": 27,
      "bufferView": 4,
      "byteOffset": 28784
    },
    {
      "type": "VEC4",
      "componentType": 5126,
      "count": 27,
      "bufferView": 4,
      "byteOffset": 29108
    },
    {
      "type": "VEC3",
      "componentType": 5126,
      "count": 27,
      "bufferView": 4,
      "byteOffset": 29540
    },
    {
      "type": "VEC4",
      "componentType": 5126,
      "count": 27,
      "bufferView": 4,
      "byteOffset": 29864
    },
    {
      "type": "VEC3",
      "componentType": 5126,
      "count": 27,
      "bufferView": 4,
      "byteOffset": 30296
    },
    {
      "type": "VEC4",
      "componentType": 5126,
      "count": 27,
      "bufferView": 4,
      "byteOffset": 30620
    },
    {
      "type": "VEC3",
      "componentType": 5126,
      "count": 27,
      "bufferView": 4,
      "byteOffset": 31052
    },
    {
      "type": "VEC4",
      "componentType": 5126,
      "count": 27,
      "bufferView": 4,
      "byteOffset": 31376
    },
    {
      "type": "VEC3",
      "componentType": 5126,
      "count": 27,
      "bufferView": 4,
      "byteOffset": 31808
    },
    {
      "type": "VEC4",
      "componentType": 5126,
      "count": 27,
      "bufferView": 4,
      "byteOffset": 32132
    },
    {
      "type": "VEC3",
      "componentType": 5126,
      "count": 27,
      "bufferView": 4,
      "byteOffset": 32564
    },
    {
      "type": "VEC4",
      "componentType": 5126,
      "count": 27,
      "bufferView": 4,
      "byteOffset": 32888
    },
    {
      "type": "VEC3",
      "componentType": 5126,
      "count": 27,
      "bufferView": 4,
      "byteOffset": 33320
    },
    {
      "type": "VEC4",
      "componentType": 5126,
      "count": 27,
      "bufferView": 4,
      "byteOffset": 33644
    },
    {
      "type": "VEC3",
      "componentType": 5126,
      "count": 27,
      "bufferView": 4,
      "byteOffset": 34076
    },
    {
      "type": "VEC4",
      "componentType": 5126,
      "count": 27,
      "bufferView": 4,
      "byteOffset": 34400
    },
    {
      "type": "VEC3",
      "componentType": 5126,
      "count": 27,
      "bufferView": 4,
      "byteOffset": 34832
    },
    {
      "type": "VEC4",
      "componentType": 5126,
      "count": 27,
      "bufferView": 4,
      "byteOffset": 35156
    },
    {
      "type": "VEC3",
      "componentType": 5126,
      "count": 27,
      "bufferView": 4,
      "byteOffset": 35588
    },
    {
      "type": "VEC4",
      "componentType": 5126,
      "count": 27,
      "bufferView": 4,
      "byteOffset": 35912
    },
    {
      "type": "VEC3",
      "componentType": 5126,
      "count": 27,
      "bufferView": 4,
      "byteOffset": 36344
    },
    {
      "type": "VEC4",
      "componentType": 5126,
      "count": 27,
      "bufferView": 4,
      "byteOffset": 36668
    },
    {
      "type": "VEC3",
      "componentType": 5126,
      "count": 27,
      "bufferView": 4,
      "byteOffset": 37100
    },
    {
      "type": "VEC4",
      "componentType": 5126,
      "count": 27,
      "bufferView": 4,
      "byteOffset": 37424
    },
    {
      "type": "VEC3",
      "componentType": 5126,
      "count": 27,
      "bufferView": 4,
      "byteOffset": 37856
    },
    {
      "type": "VEC4",
      "componentType": 5126,
      "count": 27,
      "bufferView": 4,
      "byteOffset": 38180
    },
    {
      "type": "VEC3",
      "componentType": 5126,
      "count": 27,
      "bufferView": 4,
      "byteOffset": 38612
    },
    {
      "type": "VEC4",
      "componentType": 5126,
      "count": 27,
      "bufferView": 4,
      "byteOffset": 38936
    },
    {
      "type": "VEC3",
      "componentType": 5126,
      "count": 27,
      "bufferView": 4,
      "byteOffset": 39368
    },
    {
      "type": "VEC4",
      "componentType": 5126,
      "count": 27,
      "bufferView": 4,
      "byteOffset": 39692
    },
    {
      "type": "VEC3",
      "componentType": 5126,
      "count": 27,
      "bufferView": 4,
      "byteOffset": 40124
    },
    {
      "type": "VEC4",
      "componentType": 5126,
      "count": 27,
      "bufferView": 4,
      "byteOffset": 40448
    },
    {
      "type": "VEC3",
      "componentType": 5126,
      "count": 27,
      "bufferView": 4,
      "byteOffset": 40880
    },
    {
      "type": "VEC4",
      "componentType": 5126,
      "count": 27,
      "bufferView": 4,
      "byteOffset": 41204
    },
    {
      "type": "VEC3",
      "componentType": 5126,
      "count": 27,
      "bufferView": 4,
      "byteOffset": 41636
    },
    {
      "type": "VEC4",
      "componentType": 5126,
      "count": 27,
      "bufferView": 4,
      "byteOffset": 41960
    },
    {
      "type": "VEC3",
      "componentType": 5126,
      "count": 27,
      "bufferView": 4,
      "byteOffset": 42392
    },
    {
      "type": "VEC4",
      "componentType": 5126,
      "count": 27,
      "bufferView": 4,
      "byteOffset": 42716
    },
    {
      "type": "VEC3",
      "componentType": 5126,
      "count": 27,
      "bufferView": 4,
      "byteOffset": 43148
    },
    {
      "type": "VEC4",
      "componentType": 5126,
      "count": 27,
      "bufferView": 4,
      "byteOffset": 43472
    }
  ],
  "bufferViews": [
    {
      "buffer": 0,
      "byteOffset": 0,
      "byteLength": 4749696,
      "byteStride": 56,
      "target": 34962
    },
    {
      "buffer": 0,
      "byteOffset": 4749696,
      "byteLength": 589344,
      "target": 34963
    },
    {
      "buffer": 0,
      "byteOffset": 5339040,
      "byteLength": 3501120,
      "byteStride": 56,
      "target": 34962
    },
    {
      "buffer": 0,
      "byteOffset": 8840160,
      "byteLength": 4160
    },
    {
      "buffer": 0,
      "byteOffset": 8844320,
      "byteLength": 43904
    }
  ],
  "buffers": [
    {
      "uri": "buffer.bin",
      "byteLength": 8888224
    }
  ],
  "materials": [
    {
      "name": "Beta_HighLimbsGeoSG3",
      "pbrMetallicRoughness": {
        "baseColorFactor": [
          0.8370000123977661,
          0.30230802297592163,
          0.26365500688552856,
          1
        ],
        "roughnessFactor": 0.8082915344758308,
        "metallicFactor": 0
      }
    },
    {
      "name": "Beta_Joints_MAT1",
      "pbrMetallicRoughness": {
        "baseColorFactor": [
          0.3333333432674408,
          0.12452887743711472,
          0.10101473331451416,
          1
        ],
        "roughnessFactor": 0.8585786437626904,
        "metallicFactor": 0
      }
    }
  ],
  "meshes": [
    {
      "primitives": [
        {
          "attributes": {
            "POSITION": 0,
            "NORMAL": 1,
            "TEXCOORD_0": 2,
            "JOINTS_0": 3,
            "WEIGHTS_0": 4
          },
          "mode": 4,
          "material": 0,
          "indices": 5
        }
      ]
    },
    {
      "primitives": [
        {
          "attributes": {
            "POSITION": 7,
            "NORMAL": 8,
            "TEXCOORD_0": 9,
            "JOINTS_0": 10,
            "WEIGHTS_0": 11
          },
          "mode": 4,
          "material": 1,
          "indices": 6
        }
      ]
    }
  ],
  "nodes": [
    {
      "name": "mixamorig_HeadTop_End",
      "translation": [
        9.856973974819994e-7,
        20.96278190612793,
        10.12293529510498
      ]
    },
    {
      "name": "mixamorig_Head",
      "translation": [
        -1.0756748025642082e-7,
        9.341923713684082,
        2.841040849685669
      ],
      "children": [
        0
      ]
    },
    {
      "name": "mixamorig_Neck",
      "translation": [
        4.147488463779325e-10,
        16.86532211303711,
        5.76863860499155e-14
      ],
      "children": [
        1
      ]
    },
    {
      "name": "mixamorig_RightHandThumb4",
      "translation": [
        -1.4209324973699262e-14,
        2.574977397918701,
        -2.661321277285314e-14
      ],
      "rotation": [
        0.005774853751063347,
        -0.11750920116901398,
        -0.04874370992183685,
        0.9918580055236816
      ]
    },
    {
      "name": "mixamorig_RightHandThumb3",
      "translation": [
        -1.8376710133531475e-14,
        3.416271209716797,
        1.9955813328306933e-14
      ],
      "rotation": [
        -0.001664738287217915,
        -0.0008077810634858906,
        0.006919747684150934,
        0.9999743700027466
      ],
      "children": [
        3
      ]
    },
    {
      "name": "mixamorig_RightHandThumb2",
      "translation": [
        -1.5692586390492896e-14,
        4.188985347747803,
        -9.679277575302438e-15
      ],
      "rotation": [
        -0.002315749181434512,
        -0.0011704489588737488,
        0.009300109930336475,
        0.9999533891677856
      ],
      "children": [
        4
      ]
    },
    {
      "name": "mixamorig_RightHandThumb1",
      "translation": [
        2.681851863861084,
        2.4648051261901855,
        1.573983907699585
      ],
      "rotation": [
        0.2532844841480255,
        0.061618272215127945,
        -0.22821025550365448,
        0.9380672574043274
      ],
      "children": [
        5
      ]
    },
    {
      "name": "mixamorig_RightHandIndex4",
      "translation": [
        7.906754135970917e-13,
        2.772190570831299,
        5.114471068878856e-10
      ],
      "rotation": [
        8.659859673798564e-8,
        0.0010026920353993773,
        0.0000870583244250156,
        0.9999995231628418
      ]
    },
    {
      "name": "mixamorig_RightHandIndex3",
      "translation": [
        -3.4287107658279026e-13,
        2.8499999046325684,
        -8.893045189140025e-10
      ],
      "rotation": [
        0,
        0,
        -0.00008792197331786156,
        1
      ],
      "children": [
        7
      ]
    },
    {
      "name": "mixamorig_RightHandIndex2",
      "translation": [
        -8.564062138486164e-15,
        3.700000047683716,
        -9.364993623520255e-15
      ],
      "rotation": [
        0,
        0,
        0.000255644234130159,
        0.9999999403953552
      ],
      "children": [
        8
      ]
    },
    {
      "name": "mixamorig_RightHandIndex1",
      "translation": [
        2.2598350048065186,
        9.108283042907715,
        0.5178621411323547
      ],
      "rotation": [
        -6.059340762476495e-7,
        9.953528973261072e-11,
        -0.00016426753427367657,
        1
      ],
      "children": [
        9
      ]
    },
    {
      "name": "mixamorig_RightHandMiddle4",
      "translation": [
        1.1329193740907892e-13,
        2.9466288089752197,
        7.2058732314417284e-9
      ],
      "rotation": [
        1.54982686240146e-7,
        0.0009288141736760736,
        0.00016639448585920036,
        0.9999995827674866
      ]
    },
    {
      "name": "mixamorig_RightHandMiddle3",
      "translation": [
        -2.5163898742519564e-13,
        2.950000047683716,
        -1.5411337983550766e-8
      ],
      "rotation": [
        0,
        0,
        -0.0003218420024495572,
        0.9999999403953552
      ],
      "children": [
        11
      ]
    },
    {
      "name": "mixamorig_RightHandMiddle2",
      "translation": [
        -1.0026188389179909e-14,
        3.700000047683716,
        -2.8084324349051358e-14
      ],
      "rotation": [
        0,
        0,
        0.0008498714305460453,
        0.9999996423721313
      ],
      "children": [
        12
      ]
    },
    {
      "name": "mixamorig_RightHandMiddle1",
      "translation": [
        -0.000023687323846388608,
        9.532501220703125,
        0.0000398556912841741
      ],
      "rotation": [
        -9.781740573089337e-7,
        4.908535800041136e-10,
        -0.000501805916428566,
        0.9999998807907104
      ],
      "children": [
        13
      ]
    },
    {
      "name": "mixamorig_RightHandRing4",
      "translation": [
        4.719501157067485e-13,
        2.6388156414031982,
        5.68229630015793e-10
      ],
      "rotation": [
        -1.339645194775585e-7,
        0.00014607500634156168,
        -0.0007992861792445183,
        0.9999996423721313
      ]
    },
    {
      "name": "mixamorig_RightHandRing3",
      "translation": [
        2.6225075171366907e-13,
        2.8896846771240234,
        8.202332701934267e-10
      ],
      "rotation": [
        0,
        0,
        -0.00011280510079814121,
        1
      ],
      "children": [
        15
      ]
    },
    {
      "name": "mixamorig_RightHandRing2",
      "translation": [
        -5.1494656520649496e-15,
        3.379272937774658,
        -2.837085018411907e-14
      ],
      "rotation": [
        0,
        0,
        -0.0002215150889242068,
        1
      ],
      "children": [
        16
      ]
    },
    {
      "name": "mixamorig_RightHandRing1",
      "translation": [
        -1.8651331663131714,
        9.103591918945312,
        0.04306964948773384
      ],
      "rotation": [
        6.963166043760793e-8,
        1.0850652841509767e-11,
        0.00015582930063828826,
        1
      ],
      "children": [
        17
      ]
    },
    {
      "name": "mixamorig_RightHandPinky4",
      "translation": [
        1.295905657089369e-13,
        2.11578106880188,
        1.440735175606278e-8
      ],
      "rotation": [
        -6.420659559580599e-8,
        0.001569481217302382,
        -0.00004128528235014528,
        0.9999987483024597
      ]
    },
    {
      "name": "mixamorig_RightHandPinky3",
      "translation": [
        -5.2800266329283696e-14,
        2.0999999046325684,
        -2.1163895524978216e-8
      ],
      "rotation": [
        0,
        0,
        -0.0004967778222635388,
        0.9999998807907104
      ],
      "children": [
        19
      ]
    },
    {
      "name": "mixamorig_RightHandPinky2",
      "translation": [
        -1.071511755463151e-14,
        3.5999999046325684,
        -3.08777898811851e-14
      ],
      "rotation": [
        0,
        0,
        0.0008462316473014653,
        0.9999996423721313
      ],
      "children": [
        20
      ]
    },
    {
      "name": "mixamorig_RightHandPinky1",
      "translation": [
        -3.8062775135040283,
        8.076676368713379,
        0.48670369386672974
      ],
      "rotation": [
        0.000004670719135901891,
        2.430469825398518e-9,
        0.0005203629843890667,
        0.9999998807907104
      ],
      "children": [
        21
      ]
    },
    {
      "name": "mixamorig_RightHand",
      "translation": [
        0.00002285859955009073,
        28.328838348388672,
        0.000004472538876143517
      ],
      "children": [
        6,
        10,
        14,
        18,
        22
      ]
    },
    {
      "name": "mixamorig_RightForeArm",
      "translation": [
        -9.964063352185804e-9,
        27.84151840209961,
        3.5581794130025435e-14
      ],
      "children": [
        23
      ]
    },
    {
      "name": "mixamorig_RightArm",
      "translation": [
        3.151008091806912e-15,
        10.838175773620605,
        -9.694985589551032e-16
      ],
      "rotation": [
        -0.024616241455078125,
        0.0025622916873544455,
        -0.1034984141588211,
        0.9943216443061829
      ],
      "children": [
        24
      ]
    },
    {
      "name": "mixamorig_RightShoulder",
      "translation": [
        -4.56997013092041,
        11.195844650268555,
        -0.806631863117218
      ],
      "rotation": [
        -0.4844306409358978,
        0.5709636807441711,
        -0.526163637638092,
        -0.40308716893196106
      ],
      "children": [
        25
      ]
    },
    {
      "name": "mixamorig_LeftHandThumb4",
      "translation": [
        1.646228184153109e-14,
        2.5805814266204834,
        2.600447052245221e-15
      ],
      "rotation": [
        0.005153407342731953,
        0.12268278002738953,
        0.04165153577923775,
        0.9915581345558167
      ]
    },
    {
      "name": "mixamorig_LeftHandThumb3",
      "translation": [
        -1.28233482555131e-15,
        3.4183883666992188,
        5.503635877113569e-14
      ],
      "rotation": [
        -0.0015313589246943593,
        0.0007452552090398967,
        -0.006073119584470987,
        0.999980092048645
      ],
      "children": [
        27
      ]
    },
    {
      "name": "mixamorig_LeftHandThumb2",
      "translation": [
        -8.920065004019463e-15,
        4.187094688415527,
        1.185940655032934e-14
      ],
      "rotation": [
        -0.0020670320373028517,
        0.001042730757035315,
        -0.008213408291339874,
        0.9999635815620422
      ],
      "children": [
        28
      ]
    },
    {
      "name": "mixamorig_LeftHandThumb1",
      "translation": [
        -2.6817314624786377,
        2.4661448001861572,
        1.576192855834961
      ],
      "rotation": [
        0.25309646129608154,
        -0.06132323294878006,
        0.22735275328159332,
        0.9383455514907837
      ],
      "children": [
        29
      ]
    },
    {
      "name": "mixamorig_LeftHandIndex4",
      "translation": [
        8.58972723678797e-13,
        2.7748656272888184,
        3.977551523825368e-14
      ],
      "rotation": [
        1.0594604304969835e-8,
        -0.0003775632649194449,
        -0.000013069537999399472,
        0.9999999403953552
      ]
    },
    {
      "name": "mixamorig_LeftHandIndex3",
      "translation": [
        -7.177584806887516e-13,
        2.8499999046325684,
        3.210010924604989e-14
      ],
      "rotation": [
        3.3475055261078523e-7,
        -2.217692522676895e-11,
        -0.00006624910747632384,
        1
      ],
      "children": [
        31
      ]
    },
    {
      "name": "mixamorig_LeftHandIndex2",
      "translation": [
        -6.429325659102619e-15,
        3.700000047683716,
        -7.240397822581238e-15
      ],
      "rotation": [
        3.407213569062151e-7,
        3.5809195886304934e-11,
        0.00010509818093851209,
        1
      ],
      "children": [
        32
      ]
    },
    {
      "name": "mixamorig_LeftHandIndex1",
      "translation": [
        -2.2598628997802734,
        9.109309196472168,
        0.5180343389511108
      ],
      "rotation": [
        6.665759997304121e-7,
        -2.938034884825136e-11,
        -0.00004407651795190759,
        1
      ],
      "children": [
        33
      ]
    },
    {
      "name": "mixamorig_LeftHandMiddle4",
      "translation": [
        -8.712009412492616e-12,
        2.9528634548187256,
        -1.3157034598094974e-13
      ],
      "rotation": [
        -2.6759424898159523e-8,
        -0.0010241407435387373,
        0.000027984757252852432,
        0.999999463558197
      ]
    },
    {
      "name": "mixamorig_LeftHandMiddle3",
      "translation": [
        -2.870734899795835e-12,
        2.950000047683716,
        -1.8927174823095416e-14
      ],
      "rotation": [
        -4.2758992435665277e-7,
        -8.846623086866678e-12,
        0.00002068950198008679,
        1
      ],
      "children": [
        35
      ]
    },
    {
      "name": "mixamorig_LeftHandMiddle2",
      "translation": [
        -1.8484327787062502e-15,
        3.700000047683716,
        -4.107825614629553e-15
      ],
      "rotation": [
        -1.6358384868908615e-7,
        -3.4673462018242063e-12,
        0.00002119614146067761,
        1
      ],
      "children": [
        36
      ]
    },
    {
      "name": "mixamorig_LeftHandMiddle1",
      "translation": [
        -0.0000366043605026789,
        9.533401489257812,
        -0.00003254047260270454
      ],
      "rotation": [
        4.0847359628060076e-7,
        -1.2926721325301482e-11,
        -0.00003164640656905249,
        1
      ],
      "children": [
        37
      ]
    },
    {
      "name": "mixamorig_LeftHandRing4",
      "translation": [
        -0.00002327433139726054,
        2.6443164348602295,
        -0.0000014607575167246978
      ],
      "rotation": [
        -2.731693484747666e-7,
        0.0004934373428113759,
        0.000016047022654674947,
        0.9999998807907104
      ]
    },
    {
      "name": "mixamorig_LeftHandRing3",
      "translation": [
        0.0000026432892354932847,
        2.950000047683716,
        5.209859637034242e-7
      ],
      "children": [
        39
      ]
    },
    {
      "name": "mixamorig_LeftHandRing2",
      "translation": [
        -3.88070050608689e-15,
        3.1500000953674316,
        -1.2637012442061942e-14
      ],
      "children": [
        40
      ]
    },
    {
      "name": "mixamorig_LeftHandRing1",
      "translation": [
        1.8650810718536377,
        9.104528427124023,
        0.04302823543548584
      ],
      "children": [
        41
      ]
    },
    {
      "name": "mixamorig_LeftHandPinky4",
      "translation": [
        1.1037364598676103e-12,
        2.1255314350128174,
        -4.760809666414997e-15
      ],
      "rotation": [
        2.20347089907591e-7,
        -0.0007833988056518137,
        -0.0002953855728264898,
        0.9999996423721313
      ]
    },
    {
      "name": "mixamorig_LeftHandPinky3",
      "translation": [
        2.4071784604680346e-13,
        2.1000001430511475,
        3.3381642990191335e-14
      ],
      "rotation": [
        1.0560541596760231e-7,
        -7.084234240894993e-12,
        -0.00006708211003569886,
        1
      ],
      "children": [
        43
      ]
    },
    {
      "name": "mixamorig_LeftHandPinky2",
      "translation": [
        -3.894070497642826e-15,
        3.5999999046325684,
        2.5409894051061158e-14
      ],
      "rotation": [
        6.285466724875732e-7,
        -1.3240965268668248e-10,
        -0.00021066000044811517,
        1
      ],
      "children": [
        44
      ]
    },
    {
      "name": "mixamorig_LeftHandPinky1",
      "translation": [
        3.8062632083892822,
        8.077778816223145,
        0.4868770241737366
      ],
      "rotation": [
        -0.000004975538104190491,
        1.017809747594356e-8,
        0.002044802298769355,
        0.9999979138374329
      ],
      "children": [
        45
      ]
    },
    {
      "name": "mixamorig_LeftHand",
      "translation": [
        0.000005438735115603777,
        28.328834533691406,
        -5.564248795053572e-7
      ],
      "children": [
        30,
        34,
        38,
        42,
        46
      ]
    },
    {
      "name": "mixamorig_LeftForeArm",
      "translation": [
        9.038045682143673e-15,
        27.841522216796875,
        -4.311933449863527e-15
      ],
      "children": [
        47
      ]
    },
    {
      "name": "mixamorig_LeftArm",
      "translation": [
        -2.6006848567451625e-15,
        10.837705612182617,
        -9.23750732990372e-16
      ],
      "rotation": [
        -0.024606358259916306,
        -0.002561394590884447,
        0.10350453108549118,
        0.9943212866783142
      ],
      "children": [
        48
      ]
    },
    {
      "name": "mixamorig_LeftShoulder",
      "translation": [
        4.570446014404297,
        11.19564437866211,
        -0.8066272139549255
      ],
      "rotation": [
        -0.4844226837158203,
        -0.5709704756736755,
        0.5261616110801697,
        -0.4030897319316864
      ],
      "children": [
        49
      ]
    },
    {
      "name": "mixamorig_Spine2",
      "translation": [
        1.137543140602602e-14,
        9.322091102600098,
        2.8236811999704514e-7
      ],
      "rotation": [
        0.012885619886219501,
        -4.771174011430901e-10,
        -3.702404427485817e-8,
        0.9999169707298279
      ],
      "children": [
        2,
        26,
        50
      ]
    },
    {
      "name": "mixamorig_Spine1",
      "translation": [
        -9.328540667176707e-21,
        10.00267505645752,
        5.833880131907686e-16
      ],
      "children": [
        51
      ]
    },
    {
      "name": "mixamorig_Spine",
      "translation": [
        -4.255830687860396e-10,
        10.1824369430542,
        -3.969047313034935e-15
      ],
      "rotation": [
        -0.08015572279691696,
        -6.617444900424222e-24,
        -2.480680905136978e-7,
        0.9967823624610901
      ],
      "children": [
        52
      ]
    },
    {
      "name": "mixamorig_RightToe_End",
      "translation": [
        -3.372542412320782e-16,
        9.278120994567871,
        4.289019938090877e-15
      ],
      "rotation": [
        0,
        0.011608067899942398,
        0,
        0.9999326467514038
      ]
    },
    {
      "name": "mixamorig_RightToeBase",
      "translation": [
        -1.2271307237634319e-15,
        13.816865921020508,
        4.8857847191011595e-15
      ],
      "rotation": [
        0.33524152636528015,
        1.3234889800848443e-23,
        -1.1130089205835247e-7,
        0.9421322345733643
      ],
      "children": [
        54
      ]
    },
    {
      "name": "mixamorig_RightFoot",
      "translation": [
        -5.538293379458992e-9,
        44.52781295776367,
        1.8670633954360506e-14
      ],
      "rotation": [
        0.4597400724887848,
        3.970466940254533e-23,
        -1.2432846574483847e-7,
        0.8880535364151001
      ],
      "children": [
        55
      ]
    },
    {
      "name": "mixamorig_RightLeg",
      "translation": [
        6.19727558159866e-9,
        44.371463775634766,
        -1.6627694501229057e-13
      ],
      "rotation": [
        -0.038091376423835754,
        -8.163152376283733e-10,
        2.1414892970028632e-8,
        0.9992742538452148
      ],
      "children": [
        56
      ]
    },
    {
      "name": "mixamorig_RightUpLeg",
      "translation": [
        -8.207789421081543,
        -6.771764278411865,
        -1.512218713760376
      ],
      "rotation": [
        2.7047670769775323e-9,
        0.010356475599110126,
        0.9999463558197021,
        2.611527634144295e-7
      ],
      "children": [
        57
      ]
    },
    {
      "name": "mixamorig_LeftToe_End",
      "translation": [
        -4.354517634240043e-17,
        9.27813720703125,
        -1.3126545816565145e-15
      ],
      "rotation": [
        0,
        -0.011869166046380997,
        0,
        0.9999295473098755
      ]
    },
    {
      "name": "mixamorig_LeftToeBase",
      "translation": [
        2.379745841574535e-15,
        13.816864967346191,
        -3.431525286905039e-15
      ],
      "rotation": [
        0.33524149656295776,
        1.3234889800848443e-23,
        -1.1452078751972294e-7,
        0.9421322345733643
      ],
      "children": [
        59
      ]
    },
    {
      "name": "mixamorig_LeftFoot",
      "translation": [
        -5.547779569070599e-9,
        44.52784729003906,
        -2.2030601897881502e-14
      ],
      "rotation": [
        0.45974859595298767,
        0,
        -1.1668517885254914e-7,
        0.8880491256713867
      ],
      "children": [
        60
      ]
    },
    {
      "name": "mixamorig_LeftLeg",
      "translation": [
        6.4682672551441556e-9,
        44.37139129638672,
        3.750620894047395e-14
      ],
      "rotation": [
        -0.03811245039105415,
        -8.172602594669343e-10,
        2.142781418967843e-8,
        0.9992734789848328
      ],
      "children": [
        61
      ]
    },
    {
      "name": "mixamorig_LeftUpLeg",
      "translation": [
        8.207788467407227,
        -6.77180290222168,
        -1.5122138261795044
      ],
      "rotation": [
        2.819148248178749e-9,
        0.01036795973777771,
        0.9999462366104126,
        2.71895032710745e-7
      ],
      "children": [
        62
      ]
    },
    {
      "name": "mixamorig_Hips",
      "translation": [
        -0.000007727290721959434,
        104.27487182617188,
        1.5543158054351807
      ],
      "rotation": [
        0.006458546034991741,
        0,
        0,
        0.9999791383743286
      ],
      "children": [
        53,
        58,
        63
      ]
    },
    {
      "name": "Beta_Surface",
      "mesh": 0,
      "skin": 0
    },
    {
      "name": "Beta_Joints",
      "mesh": 1,
      "skin": 0
    },
    {
      "name": "FBX_Root",
      "children": [
        64,
        65,
        66
      ]
    }
  ],
  "skins": [
    {
      "inverseBindMatrices": 12,
      "skeleton": 64,
      "joints": [
        64,
        53,
        52,
        51,
        2,
        1,
        0,
        26,
        25,
        24,
        23,
        6,
        5,
        4,
        3,
        10,
        9,
        8,
        7,
        14,
        13,
        12,
        11,
        18,
        17,
        16,
        15,
        22,
        21,
        20,
        19,
        50,
        49,
        48,
        47,
        30,
        29,
        28,
        27,
        34,
        33,
        32,
        31,
        38,
        37,
        36,
        35,
        42,
        41,
        40,
        39,
        46,
        45,
        44,
        43,
        58,
        57,
        56,
        55,
        54,
        63,
        62,
        61,
        60,
        59
      ]
    }
  ],
  "animations": [
    {
      "name": "mixamo_com",
      "samplers": [
        {
          "input": 14,
          "output": 15,
          "interpolation": "LINEAR"
        },
        {
          "input": 14,
          "output": 16,
          "interpolation": "LINEAR"
        },
        {
          "input": 14,
          "output": 17,
          "interpolation": "LINEAR"
        },
        {
          "input": 14,
          "output": 18,
          "interpolation": "LINEAR"
        },
        {
          "input": 14,
          "output": 19,
          "interpolation": "LINEAR"
        },
        {
          "input": 14,
          "output": 17,
          "interpolation": "LINEAR"
        },
        {
          "input": 14,
          "output": 20,
          "interpolation": "LINEAR"
        },
        {
          "input": 14,
          "output": 21,
          "interpolation": "LINEAR"
        },
        {
          "input": 14,
          "output": 17,
          "interpolation": "LINEAR"
        },
        {
          "input": 14,
          "output": 22,
          "interpolation": "LINEAR"
        },
        {
          "input": 14,
          "output": 23,
          "interpolation": "LINEAR"
        },
        {
          "input": 14,
          "output": 17,
          "interpolation": "LINEAR"
        },
        {
          "input": 14,
          "output": 24,
          "interpolation": "LINEAR"
        },
        {
          "input": 14,
          "output": 25,
          "interpolation": "LINEAR"
        },
        {
          "input": 14,
          "output": 17,
          "interpolation": "LINEAR"
        },
        {
          "input": 14,
          "output": 26,
          "interpolation": "LINEAR"
        },
        {
          "input": 14,
          "output": 27,
          "interpolation": "LINEAR"
        },
        {
          "input": 14,
          "output": 17,
          "interpolation": "LINEAR"
        },
        {
          "input": 14,
          "output": 28,
          "interpolation": "LINEAR"
        },
        {
          "input": 14,
          "output": 29,
          "interpolation": "LINEAR"
        },
        {
          "input": 14,
          "output": 17,
          "interpolation": "LINEAR"
        },
        {
          "input": 14,
          "output": 30,
          "interpolation": "LINEAR"
        },
        {
          "input": 14,
          "output": 31,
          "interpolation": "LINEAR"
        },
        {
          "input": 14,
          "output": 17,
          "interpolation": "LINEAR"
        },
        {
          "input": 14,
          "output": 32,
          "interpolation": "LINEAR"
        },
        {
          "input": 14,
          "output": 33,
          "interpolation": "LINEAR"
        },
        {
          "input": 14,
          "output": 17,
          "interpolation": "LINEAR"
        },
        {
          "input": 14,
          "output": 34,
          "interpolation": "LINEAR"
        },
        {
          "input": 14,
          "output": 35,
          "interpolation": "LINEAR"
        },
        {
          "input": 14,
          "output": 17,
          "interpolation": "LINEAR"
        },
        {
          "input": 14,
          "output": 36,
          "interpolation": "LINEAR"
        },
        {
          "input": 14,
          "output": 37,
          "interpolation": "LINEAR"
        },
        {
          "input": 14,
          "output": 17,
          "interpolation": "LINEAR"
        },
        {
          "input": 14,
          "output": 38,
          "interpolation": "LINEAR"
        },
        {
          "input": 14,
          "output": 39,
          "interpolation": "LINEAR"
        },
        {
          "input": 14,
          "output": 17,
          "interpolation": "LINEAR"
        },
        {
          "input": 14,
          "output": 40,
          "interpolation": "LINEAR"
        },
        {
          "input": 14,
          "output": 41,
          "interpolation": "LINEAR"
        },
        {
          "input": 14,
          "output": 17,
          "interpolation": "LINEAR"
        },
        {
          "input": 14,
          "output": 42,
          "interpolation": "LINEAR"
        },
        {
          "input": 14,
          "output": 43,
          "interpolation": "LINEAR"
        },
        {
          "input": 14,
          "output": 17,
          "interpolation": "LINEAR"
        },
        {
          "input": 14,
          "output": 44,
          "interpolation": "LINEAR"
        },
        {
          "input": 14,
          "output": 45,
          "interpolation": "LINEAR"
        },
        {
          "input": 14,
          "output": 17,
          "interpolation": "LINEAR"
        },
        {
          "input": 14,
          "output": 46,
          "interpolation": "LINEAR"
        },
        {
          "input": 14,
          "output": 47,
          "interpolation": "LINEAR"
        },
        {
          "input": 14,
          "output": 17,
          "interpolation": "LINEAR"
        },
        {
          "input": 14,
          "output": 48,
          "interpolation": "LINEAR"
        },
        {
          "input": 14,
          "output": 49,
          "interpolation": "LINEAR"
        },
        {
          "input": 14,
          "output": 17,
          "interpolation": "LINEAR"
        },
        {
          "input": 14,
          "output": 50,
          "interpolation": "LINEAR"
        },
        {
          "input": 14,
          "output": 51,
          "interpolation": "LINEAR"
        },
        {
          "input": 14,
          "output": 17,
          "interpolation": "LINEAR"
        },
        {
          "input": 14,
          "output": 52,
          "interpolation": "LINEAR"
        },
        {
          "input": 14,
          "output": 53,
          "interpolation": "LINEAR"
        },
        {
          "input": 14,
          "output": 17,
          "interpolation": "LINEAR"
        },
        {
          "input": 14,
          "output": 54,
          "interpolation": "LINEAR"
        },
        {
          "input": 14,
          "output": 55,
          "interpolation": "LINEAR"
        },
        {
          "input": 14,
          "output": 17,
          "interpolation": "LINEAR"
        },
        {
          "input": 14,
          "output": 56,
          "interpolation": "LINEAR"
        },
        {
          "input": 14,
          "output": 57,
          "interpolation": "LINEAR"
        },
        {
          "input": 14,
          "output": 17,
          "interpolation": "LINEAR"
        },
        {
          "input": 14,
          "output": 58,
          "interpolation": "LINEAR"
        },
        {
          "input": 14,
          "output": 59,
          "interpolation": "LINEAR"
        },
        {
          "input": 14,
          "output": 17,
          "interpolation": "LINEAR"
        },
        {
          "input": 14,
          "output": 60,
          "interpolation": "LINEAR"
        },
        {
          "input": 14,
          "output": 61,
          "interpolation": "LINEAR"
        },
        {
          "input": 14,
          "output": 17,
          "interpolation": "LINEAR"
        },
        {
          "input": 14,
          "output": 62,
          "interpolation": "LINEAR"
        },
        {
          "input": 14,
          "output": 63,
          "interpolation": "LINEAR"
        },
        {
          "input": 14,
          "output": 17,
          "interpolation": "LINEAR"
        },
        {
          "input": 14,
          "output": 64,
          "interpolation": "LINEAR"
        },
        {
          "input": 14,
          "output": 65,
          "interpolation": "LINEAR"
        },
        {
          "input": 14,
          "output": 17,
          "interpolation": "LINEAR"
        },
        {
          "input": 14,
          "output": 66,
          "interpolation": "LINEAR"
        },
        {
          "input": 14,
          "output": 67,
          "interpolation": "LINEAR"
        },
        {
          "input": 14,
          "output": 17,
          "interpolation": "LINEAR"
        },
        {
          "input": 14,
          "output": 68,
          "interpolation": "LINEAR"
        },
        {
          "input": 14,
          "output": 69,
          "interpolation": "LINEAR"
        },
        {
          "input": 14,
          "output": 17,
          "interpolation": "LINEAR"
        },
        {
          "input": 14,
          "output": 70,
          "interpolation": "LINEAR"
        },
        {
          "input": 14,
          "output": 71,
          "interpolation": "LINEAR"
        },
        {
          "input": 14,
          "output": 17,
          "interpolation": "LINEAR"
        },
        {
          "input": 14,
          "output": 72,
          "interpolation": "LINEAR"
        },
        {
          "input": 14,
          "output": 73,
          "interpolation": "LINEAR"
        },
        {
          "input": 14,
          "output": 17,
          "interpolation": "LINEAR"
        },
        {
          "input": 14,
          "output": 74,
          "interpolation": "LINEAR"
        },
        {
          "input": 14,
          "output": 75,
          "interpolation": "LINEAR"
        },
        {
          "input": 14,
          "output": 17,
          "interpolation": "LINEAR"
        },
        {
          "input": 14,
          "output": 76,
          "interpolation": "LINEAR"
        },
        {
          "input": 14,
          "output": 77,
          "interpolation": "LINEAR"
        },
        {
          "input": 14,
          "output": 17,
          "interpolation": "LINEAR"
        },
        {
          "input": 14,
          "output": 78,
          "interpolation": "LINEAR"
        },
        {
          "input": 14,
          "output": 79,
          "interpolation": "LINEAR"
        },
        {
          "input": 14,
          "output": 17,
          "interpolation": "LINEAR"
        },
        {
          "input": 14,
          "output": 80,
          "interpolation": "LINEAR"
        },
        {
          "input": 14,
          "output": 81,
          "interpolation": "LINEAR"
        },
        {
          "input": 14,
          "output": 17,
          "interpolation": "LINEAR"
        },
        {
          "input": 14,
          "output": 82,
          "interpolation": "LINEAR"
        },
        {
          "input": 14,
          "output": 83,
          "interpolation": "LINEAR"
        },
        {
          "input": 14,
          "output": 17,
          "interpolation": "LINEAR"
        },
        {
          "input": 14,
          "output": 84,
          "interpolation": "LINEAR"
        },
        {
          "input": 14,
          "output": 85,
          "interpolation": "LINEAR"
        },
        {
          "input": 14,
          "output": 17,
          "interpolation": "LINEAR"
        },
        {
          "input": 14,
          "output": 86,
          "interpolation": "LINEAR"
        },
        {
          "input": 14,
          "output": 87,
          "interpolation": "LINEAR"
        },
        {
          "input": 14,
          "output": 17,
          "interpolation": "LINEAR"
        },
        {
          "input": 14,
          "output": 88,
          "interpolation": "LINEAR"
        },
        {
          "input": 14,
          "output": 89,
          "interpolation": "LINEAR"
        },
        {
          "input": 14,
          "output": 17,
          "interpolation": "LINEAR"
        },
        {
          "input": 14,
          "output": 90,
          "interpolation": "LINEAR"
        },
        {
          "input": 14,
          "output": 91,
          "interpolation": "LINEAR"
        },
        {
          "input": 14,
          "output": 17,
          "interpolation": "LINEAR"
        },
        {
          "input": 14,
          "output": 92,
          "interpolation": "LINEAR"
        },
        {
          "input": 14,
          "output": 93,
          "interpolation": "LINEAR"
        },
        {
          "input": 14,
          "output": 17,
          "interpolation": "LINEAR"
        },
        {
          "input": 14,
          "output": 94,
          "interpolation": "LINEAR"
        },
        {
          "input": 14,
          "output": 95,
          "interpolation": "LINEAR"
        },
        {
          "input": 14,
          "output": 17,
          "interpolation": "LINEAR"
        },
        {
          "input": 14,
          "output": 96,
          "interpolation": "LINEAR"
        },
        {
          "input": 14,
          "output": 97,
          "interpolation": "LINEAR"
        },
        {
          "input": 14,
          "output": 17,
          "interpolation": "LINEAR"
        },
        {
          "input": 14,
          "output": 98,
          "interpolation": "LINEAR"
        },
        {
          "input": 14,
          "output": 99,
          "interpolation": "LINEAR"
        },
        {
          "input": 14,
          "output": 17,
          "interpolation": "LINEAR"
        },
        {
          "input": 14,
          "output": 100,
          "interpolation": "LINEAR"
        },
        {
          "input": 14,
          "output": 101,
          "interpolation": "LINEAR"
        },
        {
          "input": 14,
          "output": 17,
          "interpolation": "LINEAR"
        },
        {
          "input": 14,
          "output": 102,
          "interpolation": "LINEAR"
        },
        {
          "input": 14,
          "output": 103,
          "interpolation": "LINEAR"
        },
        {
          "input": 14,
          "output": 17,
          "interpolation": "LINEAR"
        },
        {
          "input": 14,
          "output": 104,
          "interpolation": "LINEAR"
        },
        {
          "input": 14,
          "output": 105,
          "interpolation": "LINEAR"
        },
        {
          "input": 14,
          "output": 17,
          "interpolation": "LINEAR"
        },
        {
          "input": 14,
          "output": 106,
          "interpolation": "LINEAR"
        },
        {
          "input": 14,
          "output": 107,
          "interpolation": "LINEAR"
        },
        {
          "input": 14,
          "output": 17,
          "interpolation": "LINEAR"
        },
        {
          "input": 14,
          "output": 108,
          "interpolation": "LINEAR"
        },
        {
          "input": 14,
          "output": 109,
          "interpolation": "LINEAR"
        },
        {
          "input": 14,
          "output": 17,
          "interpolation": "LINEAR"
        },
        {
          "input": 14,
          "output": 110,
          "interpolation": "LINEAR"
        },
        {
          "input": 14,
          "output": 111,
          "interpolation": "LINEAR"
        },
        {
          "input": 14,
          "output": 17,
          "interpolation": "LINEAR"
        },
        {
          "input": 14,
          "output": 112,
          "interpolation": "LINEAR"
        },
        {
          "input": 14,
          "output": 113,
          "interpolation": "LINEAR"
        },
        {
          "input": 14,
          "output": 17,
          "interpolation": "LINEAR"
        },
        {
          "input": 14,
          "output": 114,
          "interpolation": "LINEAR"
        },
        {
          "input": 14,
          "output": 115,
          "interpolation": "LINEAR"
        },
        {
          "input": 14,
          "output": 17,
          "interpolation": "LINEAR"
        },
        {
          "input": 14,
          "output": 116,
          "interpolation": "LINEAR"
        },
        {
          "input": 14,
          "output": 117,
          "interpolation": "LINEAR"
        },
        {
          "input": 14,
          "output": 17,
          "interpolation": "LINEAR"
        },
        {
          "input": 14,
          "output": 118,
          "interpolation": "LINEAR"
        },
        {
          "input": 14,
          "output": 119,
          "interpolation": "LINEAR"
        },
        {
          "input": 14,
          "output": 17,
          "interpolation": "LINEAR"
        }
      ],
      "channels": [
        {
          "sampler": 0,
          "target": {
            "node": 64,
            "path": "translation"
          }
        },
        {
          "sampler": 1,
          "target": {
            "node": 64,
            "path": "rotation"
          }
        },
        {
          "sampler": 2,
          "target": {
            "node": 64,
            "path": "scale"
          }
        },
        {
          "sampler": 3,
          "target": {
            "node": 53,
            "path": "translation"
          }
        },
        {
          "sampler": 4,
          "target": {
            "node": 53,
            "path": "rotation"
          }
        },
        {
          "sampler": 5,
          "target": {
            "node": 53,
            "path": "scale"
          }
        },
        {
          "sampler": 6,
          "target": {
            "node": 58,
            "path": "translation"
          }
        },
        {
          "sampler": 7,
          "target": {
            "node": 58,
            "path": "rotation"
          }
        },
        {
          "sampler": 8,
          "target": {
            "node": 58,
            "path": "scale"
          }
        },
        {
          "sampler": 9,
          "target": {
            "node": 63,
            "path": "translation"
          }
        },
        {
          "sampler": 10,
          "target": {
            "node": 63,
            "path": "rotation"
          }
        },
        {
          "sampler": 11,
          "target": {
            "node": 63,
            "path": "scale"
          }
        },
        {
          "sampler": 12,
          "target": {
            "node": 52,
            "path": "translation"
          }
        },
        {
          "sampler": 13,
          "target": {
            "node": 52,
            "path": "rotation"
          }
        },
        {
          "sampler": 14,
          "target": {
            "node": 52,
            "path": "scale"
          }
        },
        {
          "sampler": 15,
          "target": {
            "node": 57,
            "path": "translation"
          }
        },
        {
          "sampler": 16,
          "target": {
            "node": 57,
            "path": "rotation"
          }
        },
        {
          "sampler": 17,
          "target": {
            "node": 57,
            "path": "scale"
          }
        },
        {
          "sampler": 18,
          "target": {
            "node": 62,
            "path": "translation"
          }
        },
        {
          "sampler": 19,
          "target": {
            "node": 62,
            "path": "rotation"
          }
        },
        {
          "sampler": 20,
          "target": {
            "node": 62,
            "path": "scale"
          }
        },
        {
          "sampler": 21,
          "target": {
            "node": 51,
            "path": "translation"
          }
        },
        {
          "sampler": 22,
          "target": {
            "node": 51,
            "path": "rotation"
          }
        },
        {
          "sampler": 23,
          "target": {
            "node": 51,
            "path": "scale"
          }
        },
        {
          "sampler": 24,
          "target": {
            "node": 56,
            "path": "translation"
          }
        },
        {
          "sampler": 25,
          "target": {
            "node": 56,
            "path": "rotation"
          }
        },
        {
          "sampler": 26,
          "target": {
            "node": 56,
            "path": "scale"
          }
        },
        {
          "sampler": 27,
          "target": {
            "node": 61,
            "path": "translation"
          }
        },
        {
          "sampler": 28,
          "target": {
            "node": 61,
            "path": "rotation"
          }
        },
        {
          "sampler": 29,
          "target": {
            "node": 61,
            "path": "scale"
          }
        },
        {
          "sampler": 30,
          "target": {
            "node": 2,
            "path": "translation"
          }
        },
        {
          "sampler": 31,
          "target": {
            "node": 2,
            "path": "rotation"
          }
        },
        {
          "sampler": 32,
          "target": {
            "node": 2,
            "path": "scale"
          }
        },
        {
          "sampler": 33,
          "target": {
            "node": 26,
            "path": "translation"
          }
        },
        {
          "sampler": 34,
          "target": {
            "node": 26,
            "path": "rotation"
          }
        },
        {
          "sampler": 35,
          "target": {
            "node": 26,
            "path": "scale"
          }
        },
        {
          "sampler": 36,
          "target": {
            "node": 50,
            "path": "translation"
          }
        },
        {
          "sampler": 37,
          "target": {
            "node": 50,
            "path": "rotation"
          }
        },
        {
          "sampler": 38,
          "target": {
            "node": 50,
            "path": "scale"
          }
        },
        {
          "sampler": 39,
          "target": {
            "node": 55,
            "path": "translation"
          }
        },
        {
          "sampler": 40,
          "target": {
            "node": 55,
            "path": "rotation"
          }
        },
        {
          "sampler": 41,
          "target": {
            "node": 55,
            "path": "scale"
          }
        },
        {
          "sampler": 42,
          "target": {
            "node": 60,
            "path": "translation"
          }
        },
        {
          "sampler": 43,
          "target": {
            "node": 60,
            "path": "rotation"
          }
        },
        {
          "sampler": 44,
          "target": {
            "node": 60,
            "path": "scale"
          }
        },
        {
          "sampler": 45,
          "target": {
            "node": 1,
            "path": "translation"
          }
        },
        {
          "sampler": 46,
          "target": {
            "node": 1,
            "path": "rotation"
          }
        },
        {
          "sampler": 47,
          "target": {
            "node": 1,
            "path": "scale"
          }
        },
        {
          "sampler": 48,
          "target": {
            "node": 25,
            "path": "translation"
          }
        },
        {
          "sampler": 49,
          "target": {
            "node": 25,
            "path": "rotation"
          }
        },
        {
          "sampler": 50,
          "target": {
            "node": 25,
            "path": "scale"
          }
        },
        {
          "sampler": 51,
          "target": {
            "node": 49,
            "path": "translation"
          }
        },
        {
          "sampler": 52,
          "target": {
            "node": 49,
            "path": "rotation"
          }
        },
        {
          "sampler": 53,
          "target": {
            "node": 49,
            "path": "scale"
          }
        },
        {
          "sampler": 54,
          "target": {
            "node": 24,
            "path": "translation"
          }
        },
        {
          "sampler": 55,
          "target": {
            "node": 24,
            "path": "rotation"
          }
        },
        {
          "sampler": 56,
          "target": {
            "node": 24,
            "path": "scale"
          }
        },
        {
          "sampler": 57,
          "target": {
            "node": 48,
            "path": "translation"
          }
        },
        {
          "sampler": 58,
          "target": {
            "node": 48,
            "path": "rotation"
          }
        },
        {
          "sampler": 59,
          "target": {
            "node": 48,
            "path": "scale"
          }
        },
        {
          "sampler": 60,
          "target": {
            "node": 23,
            "path": "translation"
          }
        },
        {
          "sampler": 61,
          "target": {
            "node": 23,
            "path": "rotation"
          }
        },
        {
          "sampler": 62,
          "target": {
            "node": 23,
            "path": "scale"
          }
        },
        {
          "sampler": 63,
          "target": {
            "node": 47,
            "path": "translation"
          }
        },
        {
          "sampler": 64,
          "target": {
            "node": 47,
            "path": "rotation"
          }
        },
        {
          "sampler": 65,
          "target": {
            "node": 47,
            "path": "scale"
          }
        },
        {
          "sampler": 66,
          "target": {
            "node": 6,
            "path": "translation"
          }
        },
        {
          "sampler": 67,
          "target": {
            "node": 6,
            "path": "rotation"
          }
        },
        {
          "sampler": 68,
          "target": {
            "node": 6,
            "path": "scale"
          }
        },
        {
          "sampler": 69,
          "target": {
            "node": 10,
            "path": "translation"
          }
        },
        {
          "sampler": 70,
          "target": {
            "node": 10,
            "path": "rotation"
          }
        },
        {
          "sampler": 71,
          "target": {
            "node": 10,
            "path": "scale"
          }
        },
        {
          "sampler": 72,
          "target": {
            "node": 14,
            "path": "translation"
          }
        },
        {
          "sampler": 73,
          "target": {
            "node": 14,
            "path": "rotation"
          }
        },
        {
          "sampler": 74,
          "target": {
            "node": 14,
            "path": "scale"
          }
        },
        {
          "sampler": 75,
          "target": {
            "node": 18,
            "path": "translation"
          }
        },
        {
          "sampler": 76,
          "target": {
            "node": 18,
            "path": "rotation"
          }
        },
        {
          "sampler": 77,
          "target": {
            "node": 18,
            "path": "scale"
          }
        },
        {
          "sampler": 78,
          "target": {
            "node": 22,
            "path": "translation"
          }
        },
        {
          "sampler": 79,
          "target": {
            "node": 22,
            "path": "rotation"
          }
        },
        {
          "sampler": 80,
          "target": {
            "node": 22,
            "path": "scale"
          }
        },
        {
          "sampler": 81,
          "target": {
            "node": 30,
            "path": "translation"
          }
        },
        {
          "sampler": 82,
          "target": {
            "node": 30,
            "path": "rotation"
          }
        },
        {
          "sampler": 83,
          "target": {
            "node": 30,
            "path": "scale"
          }
        },
        {
          "sampler": 84,
          "target": {
            "node": 34,
            "path": "translation"
          }
        },
        {
          "sampler": 85,
          "target": {
            "node": 34,
            "path": "rotation"
          }
        },
        {
          "sampler": 86,
          "target": {
            "node": 34,
            "path": "scale"
          }
        },
        {
          "sampler": 87,
          "target": {
            "node": 38,
            "path": "translation"
          }
        },
        {
          "sampler": 88,
          "target": {
            "node": 38,
            "path": "rotation"
          }
        },
        {
          "sampler": 89,
          "target": {
            "node": 38,
            "path": "scale"
          }
        },
        {
          "sampler": 90,
          "target": {
            "node": 42,
            "path": "translation"
          }
        },
        {
          "sampler": 91,
          "target": {
            "node": 42,
            "path": "rotation"
          }
        },
        {
          "sampler": 92,
          "target": {
            "node": 42,
            "path": "scale"
          }
        },
        {
          "sampler": 93,
          "target": {
            "node": 46,
            "path": "translation"
          }
        },
        {
          "sampler": 94,
          "target": {
            "node": 46,
            "path": "rotation"
          }
        },
        {
          "sampler": 95,
          "target": {
            "node": 46,
            "path": "scale"
          }
        },
        {
          "sampler": 96,
          "target": {
            "node": 5,
            "path": "translation"
          }
        },
        {
          "sampler": 97,
          "target": {
            "node": 5,
            "path": "rotation"
          }
        },
        {
          "sampler": 98,
          "target": {
            "node": 5,
            "path": "scale"
          }
        },
        {
          "sampler": 99,
          "target": {
            "node": 9,
            "path": "translation"
          }
        },
        {
          "sampler": 100,
          "target": {
            "node": 9,
            "path": "rotation"
          }
        },
        {
          "sampler": 101,
          "target": {
            "node": 9,
            "path": "scale"
          }
        },
        {
          "sampler": 102,
          "target": {
            "node": 13,
            "path": "translation"
          }
        },
        {
          "sampler": 103,
          "target": {
            "node": 13,
            "path": "rotation"
          }
        },
        {
          "sampler": 104,
          "target": {
            "node": 13,
            "path": "scale"
          }
        },
        {
          "sampler": 105,
          "target": {
            "node": 17,
            "path": "translation"
          }
        },
        {
          "sampler": 106,
          "target": {
            "node": 17,
            "path": "rotation"
          }
        },
        {
          "sampler": 107,
          "target": {
            "node": 17,
            "path": "scale"
          }
        },
        {
          "sampler": 108,
          "target": {
            "node": 21,
            "path": "translation"
          }
        },
        {
          "sampler": 109,
          "target": {
            "node": 21,
            "path": "rotation"
          }
        },
        {
          "sampler": 110,
          "target": {
            "node": 21,
            "path": "scale"
          }
        },
        {
          "sampler": 111,
          "target": {
            "node": 29,
            "path": "translation"
          }
        },
        {
          "sampler": 112,
          "target": {
            "node": 29,
            "path": "rotation"
          }
        },
        {
          "sampler": 113,
          "target": {
            "node": 29,
            "path": "scale"
          }
        },
        {
          "sampler": 114,
          "target": {
            "node": 33,
            "path": "translation"
          }
        },
        {
          "sampler": 115,
          "target": {
            "node": 33,
            "path": "rotation"
          }
        },
        {
          "sampler": 116,
          "target": {
            "node": 33,
            "path": "scale"
          }
        },
        {
          "sampler": 117,
          "target": {
            "node": 37,
            "path": "translation"
          }
        },
        {
          "sampler": 118,
          "target": {
            "node": 37,
            "path": "rotation"
          }
        },
        {
          "sampler": 119,
          "target": {
            "node": 37,
            "path": "scale"
          }
        },
        {
          "sampler": 120,
          "target": {
            "node": 41,
            "path": "translation"
          }
        },
        {
          "sampler": 121,
          "target": {
            "node": 41,
            "path": "rotation"
          }
        },
        {
          "sampler": 122,
          "target": {
            "node": 41,
            "path": "scale"
          }
        },
        {
          "sampler": 123,
          "target": {
            "node": 45,
            "path": "translation"
          }
        },
        {
          "sampler": 124,
          "target": {
            "node": 45,
            "path": "rotation"
          }
        },
        {
          "sampler": 125,
          "target": {
            "node": 45,
            "path": "scale"
          }
        },
        {
          "sampler": 126,
          "target": {
            "node": 4,
            "path": "translation"
          }
        },
        {
          "sampler": 127,
          "target": {
            "node": 4,
            "path": "rotation"
          }
        },
        {
          "sampler": 128,
          "target": {
            "node": 4,
            "path": "scale"
          }
        },
        {
          "sampler": 129,
          "target": {
            "node": 8,
            "path": "translation"
          }
        },
        {
          "sampler": 130,
          "target": {
            "node": 8,
            "path": "rotation"
          }
        },
        {
          "sampler": 131,
          "target": {
            "node": 8,
            "path": "scale"
          }
        },
        {
          "sampler": 132,
          "target": {
            "node": 12,
            "path": "translation"
          }
        },
        {
          "sampler": 133,
          "target": {
            "node": 12,
            "path": "rotation"
          }
        },
        {
          "sampler": 134,
          "target": {
            "node": 12,
            "path": "scale"
          }
        },
        {
          "sampler": 135,
          "target": {
            "node": 16,
            "path": "translation"
          }
        },
        {
          "sampler": 136,
          "target": {
            "node": 16,
            "path": "rotation"
          }
        },
        {
          "sampler": 137,
          "target": {
            "node": 16,
            "path": "scale"
          }
        },
        {
          "sampler": 138,
          "target": {
            "node": 20,
            "path": "translation"
          }
        },
        {
          "sampler": 139,
          "target": {
            "node": 20,
            "path": "rotation"
          }
        },
        {
          "sampler": 140,
          "target": {
            "node": 20,
            "path": "scale"
          }
        },
        {
          "sampler": 141,
          "target": {
            "node": 28,
            "path": "translation"
          }
        },
        {
          "sampler": 142,
          "target": {
            "node": 28,
            "path": "rotation"
          }
        },
        {
          "sampler": 143,
          "target": {
            "node": 28,
            "path": "scale"
          }
        },
        {
          "sampler": 144,
          "target": {
            "node": 32,
            "path": "translation"
          }
        },
        {
          "sampler": 145,
          "target": {
            "node": 32,
            "path": "rotation"
          }
        },
        {
          "sampler": 146,
          "target": {
            "node": 32,
            "path": "scale"
          }
        },
        {
          "sampler": 147,
          "target": {
            "node": 36,
            "path": "translation"
          }
        },
        {
          "sampler": 148,
          "target": {
            "node": 36,
            "path": "rotation"
          }
        },
        {
          "sampler": 149,
          "target": {
            "node": 36,
            "path": "scale"
          }
        },
        {
          "sampler": 150,
          "target": {
            "node": 40,
            "path": "translation"
          }
        },
        {
          "sampler": 151,
          "target": {
            "node": 40,
            "path": "rotation"
          }
        },
        {
          "sampler": 152,
          "target": {
            "node": 40,
            "path": "scale"
          }
        },
        {
          "sampler": 153,
          "target": {
            "node": 44,
            "path": "translation"
          }
        },
        {
          "sampler": 154,
          "target": {
            "node": 44,
            "path": "rotation"
          }
        },
        {
          "sampler": 155,
          "target": {
            "node": 44,
            "path": "scale"
          }
        }
      ]
    }
  ],
  "scenes": [
    {
      "name": "empty_1",
      "nodes": [
        67
      ]
    }
  ],
  "scene": 0
}